HIERARCHY
ROOT root
{
  OFFSET 0 93.2929 0
  CHANNELS 6 Xposition Yposition Zposition Zrotation Xrotation Yrotation
  JOINT torso_1
  {
    OFFSET 0 5.07867 -1.15138
    CHANNELS 6 Xposition Yposition Zposition Zrotation Xrotation Yrotation
    JOINT torso_2
    {
      OFFSET 0 5.61661 1.07143
      CHANNELS 6 Xposition Yposition Zposition Zrotation Xrotation Yrotation
      JOINT torso_3
      {
        OFFSET -1.02604e-17 5.98978 0.11501
        CHANNELS 6 Xposition Yposition Zposition Zrotation Xrotation Yrotation
        JOINT torso_4
        {
          OFFSET -1.10457e-17 6.50583 -0.443523
          CHANNELS 6 Xposition Yposition Zposition Zrotation Xrotation Yrotation
          JOINT torso_5
          {
            OFFSET -1.97295e-17 7.60548 -1.50593
            CHANNELS 6 Xposition Yposition Zposition Zrotation Xrotation Yrotation
            JOINT torso_6
            {
              OFFSET -2.53307e-17 9.49737 -0.914492
              CHANNELS 6 Xposition Yposition Zposition Zrotation Xrotation Yrotation
              JOINT torso_7
              {
                OFFSET -2.90401e-17 10.5513 1.57691
                CHANNELS 6 Xposition Yposition Zposition Zrotation Xrotation Yrotation
                JOINT neck_1
                {
                  OFFSET -1.29193e-17 4.78644 0.715339
                  CHANNELS 6 Xposition Yposition Zposition Zrotation Xrotation Yrotation
                  JOINT neck_2
                  {
                    OFFSET -1.8116e-17 4.82109 0.421791
                    CHANNELS 6 Xposition Yposition Zposition Zrotation Xrotation Yrotation
                    JOINT head
                    {
                      OFFSET -2.00958e-17 4.83041 0.765062
                      CHANNELS 6 Xposition Yposition Zposition Zrotation Xrotation Yrotation
                      End Site
                      {
                        OFFSET 0 0.1 0
                      }
                    }
                  }
                }
                JOINT l_shoulder
                {
                  OFFSET 1.23299 -7.60731 7.53374
                  CHANNELS 6 Xposition Yposition Zposition Zrotation Xrotation Yrotation
                  JOINT l_up_arm
                  {
                    OFFSET 12.9547 3.2495 -3.26872
                    CHANNELS 6 Xposition Yposition Zposition Zrotation Xrotation Yrotation
                    JOINT l_low_arm
                    {
                      OFFSET 29.2081 0.0598081 0.137039
                      CHANNELS 6 Xposition Yposition Zposition Zrotation Xrotation Yrotation
                      JOINT l_hand
                      {
                        OFFSET 24.234 0.0496219 0.113701
                        CHANNELS 6 Xposition Yposition Zposition Zrotation Xrotation Yrotation
                        End Site
                        {
                          OFFSET 0.1 0 0
                        }
                      }
                    }
                  }
                }
                JOINT r_shoulder
                {
                  OFFSET -1.23299 -7.60729 7.53365
                  CHANNELS 6 Xposition Yposition Zposition Zrotation Xrotation Yrotation
                  JOINT r_up_arm
                  {
                    OFFSET -12.9547 3.2495 -3.26872
                    CHANNELS 6 Xposition Yposition Zposition Zrotation Xrotation Yrotation
                    JOINT r_low_arm
                    {
                      OFFSET -29.2081 0.0598081 0.137039
                      CHANNELS 6 Xposition Yposition Zposition Zrotation Xrotation Yrotation
                      JOINT r_hand
                      {
                        OFFSET -24.234 0.0496218 0.113702
                        CHANNELS 6 Xposition Yposition Zposition Zrotation Xrotation Yrotation
                        End Site
                        {
                          OFFSET -0.1 0 0
                        }
                      }
                    }
                  }
                }
              }
            }
          }
        }
      }
    }
  }
  JOINT l_up_leg
  {
    OFFSET 9.23673 -4.20556 2.0327
    CHANNELS 6 Xposition Yposition Zposition Zrotation Xrotation Yrotation
    JOINT l_low_leg
    {
      OFFSET -0.852353 -38.7721 -0.655187
      CHANNELS 6 Xposition Yposition Zposition Zrotation Xrotation Yrotation
      JOINT l_foot
      {
        OFFSET -2.32622 -40.4017 -6.04875
        CHANNELS 6 Xposition Yposition Zposition Zrotation Xrotation Yrotation
        JOINT l_toes
        {
          OFFSET 0.779096 -9.8844 12.4959
          CHANNELS 6 Xposition Yposition Zposition Zrotation Xrotation Yrotation
          End Site
          {
            OFFSET 0 0 0.1
          }
        }
      }
    }
  }
  JOINT r_up_leg
  {
    OFFSET -9.23673 -4.20556 2.0327
    CHANNELS 6 Xposition Yposition Zposition Zrotation Xrotation Yrotation
    JOINT r_low_leg
    {
      OFFSET 0.852353 -38.7721 -0.655187
      CHANNELS 6 Xposition Yposition Zposition Zrotation Xrotation Yrotation
      JOINT r_foot
      {
        OFFSET 2.32622 -40.4017 -6.04875
        CHANNELS 6 Xposition Yposition Zposition Zrotation Xrotation Yrotation
        JOINT r_toes
        {
          OFFSET -0.779096 -9.8844 12.4959
          CHANNELS 6 Xposition Yposition Zposition Zrotation Xrotation Yrotation
          End Site
          {
            OFFSET 0 0 0.1
          }
        }
      }
    }
  }
}
MOTION
Frames: 7
Frame Time: 0.016667
0 93.2929 0 -0 0 -0 0 5.07867 -1.15138 -0 0 -0 0 5.61661 1.07143 -0 0 -0 -1.02604e-17 5.98978 0.11501 -0 0 -0 -1.10457e-17 6.50583 -0.443523 -0 0 -0 -1.97295e-17 7.60548 -1.50593 -0 0 -0 -2.53307e-17 9.49737 -0.914492 -0 0 -0 -2.90401e-17 10.5513 1.57691 -0 0 -0 -1.29193e-17 4.78644 0.715339 -0 0 -0 -1.8116e-17 4.82109 0.421791 -0 0 -0 -2.00958e-17 4.83041 0.765062 -0 0 -0 1.23299 -7.60731 7.53374 -0 0 -0 12.9547 3.2495 -3.26872 -0 0 -0 29.2081 0.0598081 0.137039 -0 0 -0 24.234 0.0496219 0.113701 -0 0 -0 -1.23299 -7.60729 7.53365 -0 0 -0 -12.9547 3.2495 -3.26872 -0 0 -0 -29.2081 0.0598081 0.137039 -0 0 -0 -24.234 0.0496218 0.113702 -0 0 -0 9.23673 -4.20556 2.0327 -0 0 -0 -0.852353 -38.7721 -0.655187 -0 0 -0 -2.32622 -40.4017 -6.04875 -0 0 -0 0.779096 -9.8844 12.4959 -0 0 -0 -9.23673 -4.20556 2.0327 -0 0 -0 0.852353 -38.7721 -0.655187 -0 0 -0 2.32622 -40.4017 -6.04875 -0 0 -0 -0.779096 -9.8844 12.4959 -0 0 -0 
-384.584 92.6019 -1124.7 0.116005 -0.888354 -3.91293 0 5.07867 -1.15138 -0.369956 -0.115942 -0.199064 0 5.61661 1.07143 -0.182917 0.753236 -0.202665 -1.02604e-17 5.98978 0.11501 -0.0963032 2.07239 -0.0588673 -1.10457e-17 6.50583 -0.443523 -0.0275688 3.85331 -0.0326369 -1.97295e-17 7.60548 -1.50593 0.0360071 4.44034 -0.039676 -2.53307e-17 9.49737 -0.914492 0.130817 4.88892 -0.236248 -2.90401e-17 10.5513 1.57691 0.0892534 0.457954 -0.261426 -1.29193e-17 4.78644 0.715339 0.427823 4.50206 1.22173 -1.8116e-17 4.82109 0.421791 0.837949 -2.51922 0.413889 -2.00958e-17 4.83041 0.765062 -0.227667 -2.80249 4.46084 1.23299 -7.60731 7.53374 -3.94694 1.55615 -2.24003 12.9547 3.2495 -3.26872 -73.9283 19.7912 -11.3105 29.2081 0.0598081 0.137039 2.58728 -0.271294 -12.5623 24.234 0.0496219 0.113701 -0.727304 -42.9104 -2.32303 -1.23299 -7.60729 7.53365 -4.82792 -2.11122 -1.22254 -12.9547 3.2495 -3.26872 72.8984 26.7568 2.64274 -29.2081 0.0598081 0.137039 -11.522 -15.3612 106.994 -24.234 0.0496218 0.113702 21.1668 -71.8712 18.3588 9.23673 -4.20556 2.0327 1.90129 1.75156 -13.0137 -0.852353 -38.7721 -0.655187 -0.245898 0.917995 -0.0140536 -2.32622 -40.4017 -6.04875 -0.856646 -4.01055 15.5353 0.779096 -9.8844 12.4959 1.15886e-16 -6.67877e-16 -1.98141e-16 -9.23673 -4.20556 2.0327 -0.648695 -7.57414 13.6362 0.852353 -38.7721 -0.655187 0.192503 0.718596 0.0113363 2.32622 -40.4017 -6.04875 -0.510499 3.79302 -14.8391 -0.779096 -9.8844 12.4959 -6.00124e-16 -3.85884e-16 -1.25795e-14 
-384.589 92.6057 -1124.7 0.106704 -0.934216 -3.87566 0 5.07867 -1.15138 -0.368858 -0.0911709 -0.197202 0 5.61661 1.07143 -0.182537 0.770854 -0.200482 -1.02604e-17 5.98978 0.11501 -0.096437 2.08198 -0.0567965 -1.10457e-17 6.50583 -0.443523 -0.0282273 3.84978 -0.0304824 -1.97295e-17 7.60548 -1.50593 0.035232 4.42893 -0.0373236 -2.53307e-17 9.49737 -0.914492 0.13044 4.87387 -0.233641 -2.90401e-17 10.5513 1.57691 0.0890517 0.459881 -0.260676 -1.29193e-17 4.78644 0.715339 0.425226 4.51444 1.22287 -1.8116e-17 4.82109 0.421791 0.835981 -2.50804 0.414369 -2.00958e-17 4.83041 0.765062 -0.224558 -2.78836 4.46267 1.23299 -7.60731 7.53374 -3.94916 1.56667 -2.2477 12.9547 3.2495 -3.26872 -73.9451 19.7924 -11.2981 29.2081 0.0598081 0.137039 2.5892 -0.271714 -12.5718 24.234 0.0496219 0.113701 -0.723644 -42.9569 -2.335 -1.23299 -7.60729 7.53365 -4.80485 -2.09935 -1.20555 -12.9547 3.2495 -3.26872 72.927 26.7102 2.60774 -29.2081 0.0598081 0.137039 -11.5255 -15.3501 106.937 -24.234 0.0496218 0.113702 21.1135 -71.8272 18.3201 9.23673 -4.20556 2.0327 1.91559 1.77031 -13.0426 -0.852353 -38.7721 -0.655187 -0.257619 0.96177 -0.0146253 -2.32622 -40.4017 -6.04875 -0.880651 -4.01051 15.5382 0.779096 -9.8844 12.4959 1.15886e-16 -6.67877e-16 -1.98141e-16 -9.23673 -4.20556 2.0327 -0.644471 -7.51493 13.5602 0.852353 -38.7721 -0.655187 0.187723 0.700749 0.011084 2.32622 -40.4017 -6.04875 -0.50188 3.81726 -14.8372 -0.779096 -9.8844 12.4959 -6.00124e-16 -3.85884e-16 -1.25795e-14 
-384.594 92.6096 -1124.7 0.100488 -0.986688 -3.83353 0 5.07867 -1.15138 -0.366551 -0.0644859 -0.194729 0 5.61661 1.07143 -0.181196 0.789856 -0.197442 -1.02604e-17 5.98978 0.11501 -0.0957592 2.09224 -0.0537945 -1.10457e-17 6.50583 -0.443523 -0.0283118 3.84579 -0.027306 -1.97295e-17 7.60548 -1.50593 0.0351375 4.4163 -0.0339753 -2.53307e-17 9.49737 -0.914492 0.130963 4.85737 -0.230176 -2.90401e-17 10.5513 1.57691 0.0889501 0.462167 -0.25959 -1.29193e-17 4.78644 0.715339 0.423119 4.51999 1.21676 -1.8116e-17 4.82109 0.421791 0.838675 -2.49645 0.411622 -2.00958e-17 4.83041 0.765062 -0.223096 -2.76672 4.46275 1.23299 -7.60731 7.53374 -3.95357 1.57856 -2.25593 12.9547 3.2495 -3.26872 -73.9607 19.8065 -11.2881 29.2081 0.0598081 0.137039 2.59324 -0.272593 -12.5917 24.234 0.0496219 0.113701 -0.710081 -42.9676 -2.33879 -1.23299 -7.60729 7.53365 -4.77462 -2.08523 -1.18486 -12.9547 3.2495 -3.26872 72.9417 26.6553 2.56588 -29.2081 0.0598081 0.137039 -11.5292 -15.3382 106.876 -24.234 0.0496218 0.113702 21.1439 -71.8311 18.3628 9.23673 -4.20556 2.0327 1.92669 1.7958 -13.0709 -0.852353 -38.7721 -0.655187 -0.268814 1.00358 -0.0151631 -2.32622 -40.4017 -6.04875 -0.909566 -4.00782 15.5411 0.779096 -9.8844 12.4959 1.15886e-16 -6.67877e-16 -1.98141e-16 -9.23673 -4.20556 2.0327 -0.643771 -7.43874 13.4734 0.852353 -38.7721 -0.655187 0.178171 0.665081 0.0105753 2.32622 -40.4017 -6.04875 -0.49665 3.84507 -14.835 -0.779096 -9.8844 12.4959 -6.00124e-16 -3.85884e-16 -1.25795e-14 
-384.599 92.6139 -1124.7 0.107885 -1.04877 -3.79248 0 5.07867 -1.15138 -0.367413 -0.0347554 -0.190669 0 5.61661 1.07143 -0.182816 0.810864 -0.193178 -1.02604e-17 5.98978 0.11501 -0.097475 2.1031 -0.0495626 -1.10457e-17 6.50583 -0.443523 -0.0303827 3.84012 -0.0228572 -1.97295e-17 7.60548 -1.50593 0.0338867 4.4008 -0.0289836 -2.53307e-17 9.49737 -0.914492 0.131469 4.83725 -0.224934 -2.90401e-17 10.5513 1.57691 0.088795 0.464791 -0.258279 -1.29193e-17 4.78644 0.715339 0.419897 4.51851 1.2086 -1.8116e-17 4.82109 0.421791 0.839276 -2.47798 0.407862 -2.00958e-17 4.83041 0.765062 -0.220592 -2.74546 4.45588 1.23299 -7.60731 7.53374 -3.95429 1.59213 -2.26371 12.9547 3.2495 -3.26872 -73.9856 19.8131 -11.2754 29.2081 0.0598081 0.137039 2.59863 -0.273768 -12.6182 24.234 0.0496219 0.113701 -0.673399 -42.9048 -2.31853 -1.23299 -7.60729 7.53365 -4.73935 -2.06846 -1.16257 -12.9547 3.2495 -3.26872 72.9547 26.5997 2.51611 -29.2081 0.0598081 0.137039 -11.5328 -15.3263 106.815 -24.234 0.0496218 0.113702 21.1776 -71.8437 18.4111 9.23673 -4.20556 2.0327 1.92282 1.82994 -13.091 -0.852353 -38.7721 -0.655187 -0.279631 1.04398 -0.015675 -2.32622 -40.4017 -6.04875 -0.941863 -3.99304 15.5434 0.779096 -9.8844 12.4959 1.15886e-16 -6.67877e-16 -1.98141e-16 -9.23673 -4.20556 2.0327 -0.65752 -7.34529 13.3932 0.852353 -38.7721 -0.655187 0.164875 0.615435 0.00985732 2.32622 -40.4017 -6.04875 -0.492223 3.86889 -14.8334 -0.779096 -9.8844 12.4959 -6.63741e-16 -3.83135e-16 -1.25775e-14 
-384.603 92.6197 -1124.7 0.120279 -1.12495 -3.74509 0 5.07867 -1.15138 -0.369762 -0.00631652 -0.186791 0 5.61661 1.07143 -0.185702 0.831661 -0.18924 -1.02604e-17 5.98978 0.11501 -0.100087 2.11523 -0.0457369 -1.10457e-17 6.50583 -0.443523 -0.0329209 3.83831 -0.0187899 -1.97295e-17 7.60548 -1.50593 0.0324289 4.39029 -0.0243342 -2.53307e-17 9.49737 -0.914492 0.131927 4.82254 -0.220135 -2.90401e-17 10.5513 1.57691 0.0884205 0.466812 -0.257114 -1.29193e-17 4.78644 0.715339 0.415714 4.52949 1.18697 -1.8116e-17 4.82109 0.421791 0.843103 -2.46795 0.397734 -2.00958e-17 4.83041 0.765062 -0.21705 -2.73149 4.45358 1.23299 -7.60731 7.53374 -3.94187 1.5968 -2.26485 12.9547 3.2495 -3.26872 -74.0211 19.8162 -11.274 29.2081 0.0598081 0.137039 2.60459 -0.275072 -12.6476 24.234 0.0496219 0.113701 -0.609448 -42.7691 -2.25983 -1.23299 -7.60729 7.53365 -4.71203 -2.05837 -1.14437 -12.9547 3.2495 -3.26872 72.9771 26.5393 2.47489 -29.2081 0.0598081 0.137039 -11.5366 -15.3139 106.752 -24.234 0.0496218 0.113702 21.2162 -71.8663 18.4449 9.23673 -4.20556 2.0327 1.91208 1.87049 -13.1083 -0.852353 -38.7721 -0.655187 -0.293137 1.09443 -0.0163034 -2.32622 -40.4017 -6.04875 -0.975443 -3.9682 15.5458 0.779096 -9.8844 12.4959 1.15886e-16 -6.67877e-16 -1.98141e-16 -9.23673 -4.20556 2.0327 -0.678176 -7.23837 13.3138 0.852353 -38.7721 -0.655187 0.151953 0.567189 0.00914857 2.32622 -40.4017 -6.04875 -0.490306 3.89729 -14.8317 -0.779096 -9.8844 12.4959 -9.95049e-16 -3.68821e-16 -1.25671e-14 
-384.608 92.6227 -1124.7 0.136845 -1.16348 -3.70388 0 5.07867 -1.15138 -0.371442 0.0129982 -0.181947 0 5.61661 1.07143 -0.188041 0.845149 -0.184158 -1.02604e-17 5.98978 0.11501 -0.102287 2.12164 -0.0405719 -1.10457e-17 6.50583 -0.443523 -0.0351541 3.83363 -0.0132902 -1.97295e-17 7.60548 -1.50593 0.031398 4.37894 -0.018194 -2.53307e-17 9.49737 -0.914492 0.13319 4.80729 -0.214021 -2.90401e-17 10.5513 1.57691 0.0880277 0.468133 -0.255965 -1.29193e-17 4.78644 0.715339 0.411156 4.54443 1.17385 -1.8116e-17 4.82109 0.421791 0.848255 -2.44571 0.391505 -2.00958e-17 4.83041 0.765062 -0.222218 -2.72698 4.43375 1.23299 -7.60731 7.53374 -3.91168 1.5971 -2.25803 12.9547 3.2495 -3.26872 -74.0869 19.7981 -11.2622 29.2081 0.0598081 0.137039 2.60969 -0.276191 -12.6728 24.234 0.0496219 0.113701 -0.54165 -42.5837 -2.21724 -1.23299 -7.60729 7.53365 -4.68489 -2.04835 -1.12795 -12.9547 3.2495 -3.26872 73.0035 26.4855 2.43415 -29.2081 0.0598081 0.137039 -11.5395 -15.3045 106.704 -24.234 0.0496218 0.113702 21.2329 -71.8832 18.4666 9.23673 -4.20556 2.0327 1.89929 1.87773 -13.1396 -0.852353 -38.7721 -0.655187 -0.305613 1.14103 -0.0168734 -2.32622 -40.4017 -6.04875 -0.996629 -3.95531 15.5475 0.779096 -9.8844 12.4959 1.15886e-16 -6.67877e-16 -1.98141e-16 -9.23673 -4.20556 2.0327 -0.699687 -7.15817 13.2521 0.852353 -38.7721 -0.655187 0.134073 0.500432 0.00814996 2.32622 -40.4017 -6.04875 -0.484407 3.91184 -14.8322 -0.779096 -9.8844 12.4959 -6.6903e-16 -3.82907e-16 -1.25773e-14 
